<svg xmlns="http://www.w3.org/2000/svg" width="1120" height="680" viewBox="0 0 1120 680" font-family="PingFang SC, Microsoft YaHei, sans-serif" role="img" aria-labelledby="title desc">
  <title id="title">开卷助手梦幻极光与夏日汽水主题套系</title>
  <desc id="desc">同一品牌语义在两个主题中的完整套系预览：梦幻极光与夏日汽水，各自包含 banner 和弹窗局部。</desc>
  <defs>
    <linearGradient id="dreamBg" x1="0" y1="0" x2="1" y2="1"><stop stop-color="#6c61cd"/><stop offset=".52" stop-color="#b98bdc"/><stop offset="1" stop-color="#f4a99e"/></linearGradient>
    <linearGradient id="summerBg" x1="0" y1="0" x2="1" y2="1"><stop stop-color="#45d5ca"/><stop offset=".55" stop-color="#8eeac4"/><stop offset="1" stop-color="#ffd46b"/></linearGradient>
    <linearGradient id="dreamAccent" x1="0" y1="0" x2="1" y2="1"><stop stop-color="#8878df"/><stop offset="1" stop-color="#ef9d9a"/></linearGradient>
    <linearGradient id="summerAccent" x1="0" y1="0" x2="1" y2="1"><stop stop-color="#1cabb3"/><stop offset="1" stop-color="#efaa55"/></linearGradient>
    <pattern id="dreamTexture" width="34" height="34" patternUnits="userSpaceOnUse"><circle cx="5" cy="8" r="1.2" fill="#fff" fill-opacity=".22"/><circle cx="21" cy="25" r="1" fill="#fff" fill-opacity=".16"/><path d="M29 4c3 2 4 5 3 8" fill="none" stroke="#fff" stroke-opacity=".12" stroke-width="1"/></pattern>
    <pattern id="summerTexture" width="46" height="46" patternUnits="userSpaceOnUse"><circle cx="9" cy="12" r="3" fill="#fff" fill-opacity=".14"/><circle cx="33" cy="31" r="2" fill="#fff" fill-opacity=".18"/><path d="M16 42c5-7 11-7 16 0" fill="none" stroke="#fff" stroke-opacity=".12" stroke-width="1.5"/></pattern>
    <filter id="pairShadow" x="-20%" y="-20%" width="140%" height="170%"><feDropShadow dx="0" dy="10" stdDeviation="12" flood-color="#5c4b69" flood-opacity=".2"/></filter>
    <clipPath id="dreamBanner"><rect x="32" y="112" width="510" height="184" rx="22"/></clipPath>
    <clipPath id="summerBanner"><rect x="578" y="112" width="510" height="184" rx="22"/></clipPath>
  </defs>
  <rect width="1120" height="680" fill="#fcf8f4"/>
  <text x="48" y="58" font-size="28" font-weight="700" fill="#342e3c">同一品牌，两个季节主题</text>
  <text x="48" y="86" font-size="15" fill="#817786">共享 Logo、文案和信息结构，只切换颜色、光线与装饰语言</text>

  <text x="32" y="101" font-size="16" font-weight="700" fill="#7568c8">J · 梦幻极光</text>
  <g clip-path="url(#dreamBanner)">
    <rect x="32" y="112" width="510" height="184" rx="22" fill="url(#dreamBg)"/>
    <rect x="32" y="112" width="510" height="184" fill="url(#dreamTexture)" opacity=".62"/>
    <circle cx="68" cy="112" r="76" fill="#fff" fill-opacity=".18"/><circle cx="542" cy="292" r="118" fill="#ffd6c6" fill-opacity=".24"/>
    <path d="M8 270c100-85 165 42 260-41s178-5 298-64" fill="none" stroke="#fff" stroke-opacity=".22" stroke-width="18"/>
    <path d="M8 281c100-72 169 39 263-36s176-4 296-56" fill="none" stroke="#fff" stroke-opacity=".28" stroke-width="3"/>
    <text x="64" y="176" font-size="31" font-weight="700" fill="#fffaff">开卷助手</text><text x="64" y="207" font-size="14" fill="#f6eaff">整理课程资料 · 生成复习提纲</text>
    <rect x="64" y="230" width="134" height="30" rx="15" fill="#fff" fill-opacity=".18" stroke="#fff" stroke-opacity=".36"/><text x="131" y="250" text-anchor="middle" font-size="12" font-weight="600" fill="#fff">知识核验</text>
    <circle cx="474" cy="187" r="40" fill="#fff" fill-opacity=".12"/><circle cx="474" cy="187" r="34" fill="none" stroke="#fff" stroke-opacity=".3" stroke-width="1"/><rect x="444" y="157" width="60" height="60" rx="20" fill="#6659c2" fill-opacity=".86" stroke="#fff" stroke-opacity=".58"/><g data-role="logo" data-logo-intent="knowledge verification" data-icon-source="lucide" data-icon-name="book-open-check" data-icon-license="ISC" transform="translate(454 167) scale(1.75)" fill="none" stroke="#fff" stroke-width="1.65" stroke-linecap="round" stroke-linejoin="round"><path d="M12 5v16"/><path d="m16 12 2 2 4-4"/><path d="M22 6V5a2 2 0 0 0-1.999-2L16 3.002A5 5 0 0 0 12 5a5 5 0 0 0-4-2H4a2 2 0 0 0-2 2v12a2 2 0 0 0 1.999 2H8a5 5 0 0 1 4 2 5 5 0 0 1 4-2h4.001A2 2 0 0 0 22 17v-1.344"/></g>
  </g>
  <g filter="url(#pairShadow)"><rect x="32" y="320" width="510" height="286" rx="22" fill="#fffaff"/><rect x="58" y="346" width="50" height="50" rx="15" fill="url(#dreamAccent)" stroke="#fff" stroke-opacity=".7"/><circle cx="83" cy="371" r="30" fill="none" stroke="#b38bdc" stroke-opacity=".22"/><g transform="translate(70 358) scale(1.55)" fill="none" stroke="#fff" stroke-width="1.65" stroke-linecap="round" stroke-linejoin="round"><path d="M12 5v16"/><path d="m16 12 2 2 4-4"/><path d="M22 6V5a2 2 0 0 0-1.999-2L16 3.002A5 5 0 0 0 12 5a5 5 0 0 0-4-2H4a2 2 0 0 0-2 2v12a2 2 0 0 0 1.999 2H8a5 5 0 0 1 4 2 5 5 0 0 1 4-2h4.001A2 2 0 0 0 22 17v-1.344"/></g><text x="126" y="368" font-size="18" font-weight="700" fill="#443d62">开卷助手</text><text x="126" y="390" font-size="13" fill="#958aa4">页面就绪 · 24/24</text><line x1="58" y1="423" x2="516" y2="423" stroke="#eee4f2"/><text x="58" y="453" font-size="13" font-weight="700" fill="#665578">同步进度</text><rect x="58" y="470" width="458" height="12" rx="6" fill="#f0e4f6"/><rect x="58" y="470" width="374" height="12" rx="6" fill="url(#dreamAccent)"/><rect x="58" y="510" width="210" height="42" rx="21" fill="#7364c9"/><text x="163" y="537" text-anchor="middle" font-size="13" font-weight="700" fill="#fff">整理章节资料</text><rect x="284" y="510" width="210" height="42" rx="21" fill="#fff" stroke="#b38bdc" stroke-width="2"/><text x="389" y="537" text-anchor="middle" font-size="13" font-weight="700" fill="#7568c8">导出复习提纲</text></g>

  <text x="578" y="101" font-size="16" font-weight="700" fill="#169b9c">K · 夏日汽水</text>
  <g clip-path="url(#summerBanner)">
    <rect x="578" y="112" width="510" height="184" rx="22" fill="url(#summerBg)"/>
    <rect x="578" y="112" width="510" height="184" fill="url(#summerTexture)" opacity=".7"/>
    <circle cx="1045" cy="120" r="78" fill="#fff2a8" fill-opacity=".68"/><path d="M558 266c100-98 173 48 268-43s167-6 286-62v150H558Z" fill="#fff" fill-opacity=".22"/><path d="M558 278c103-80 173 40 270-34s166-5 286-53" fill="none" stroke="#fff" stroke-opacity=".56" stroke-width="4"/><circle cx="700" cy="146" r="6" fill="#fff" fill-opacity=".55"/><circle cx="730" cy="132" r="4" fill="#fff" fill-opacity=".7"/>
    <text x="610" y="176" font-size="31" font-weight="700" fill="#104d5d">开卷助手</text><text x="610" y="207" font-size="14" fill="#286d76">整理课程资料 · 生成复习提纲</text><rect x="610" y="230" width="134" height="30" rx="15" fill="#fff" fill-opacity=".62"/><text x="677" y="250" text-anchor="middle" font-size="12" font-weight="600" fill="#136d72">知识核验</text><circle cx="1020" cy="187" r="40" fill="#fff" fill-opacity=".16"/><circle cx="1020" cy="187" r="34" fill="none" stroke="#fff" stroke-opacity=".45" stroke-width="1"/><rect x="990" y="157" width="60" height="60" rx="20" fill="#ef9f5b" stroke="#fff" stroke-opacity=".78"/><g data-role="logo" data-logo-intent="knowledge verification" data-icon-source="lucide" data-icon-name="book-open-check" data-icon-license="ISC" transform="translate(1000 167) scale(1.75)" fill="none" stroke="#fff" stroke-width="1.65" stroke-linecap="round" stroke-linejoin="round"><path d="M12 5v16"/><path d="m16 12 2 2 4-4"/><path d="M22 6V5a2 2 0 0 0-1.999-2L16 3.002A5 5 0 0 0 12 5a5 5 0 0 0-4-2H4a2 2 0 0 0-2 2v12a2 2 0 0 0 1.999 2H8a5 5 0 0 1 4 2 5 5 0 0 1 4-2h4.001A2 2 0 0 0 22 17v-1.344"/></g>
  </g>
  <g filter="url(#pairShadow)"><rect x="578" y="320" width="510" height="286" rx="22" fill="#fbfffb"/><rect x="604" y="346" width="50" height="50" rx="15" fill="url(#summerAccent)" stroke="#fff" stroke-opacity=".72"/><circle cx="629" cy="371" r="30" fill="none" stroke="#efaa55" stroke-opacity=".25"/><g transform="translate(616 358) scale(1.55)" fill="none" stroke="#fff" stroke-width="1.65" stroke-linecap="round" stroke-linejoin="round"><path d="M12 5v16"/><path d="m16 12 2 2 4-4"/><path d="M22 6V5a2 2 0 0 0-1.999-2L16 3.002A5 5 0 0 0 12 5a5 5 0 0 0-4-2H4a2 2 0 0 0-2 2v12a2 2 0 0 0 1.999 2H8a5 5 0 0 1 4 2 5 5 0 0 1 4-2h4.001A2 2 0 0 0 22 17v-1.344"/></g><text x="672" y="368" font-size="18" font-weight="700" fill="#176b68">开卷助手</text><text x="672" y="390" font-size="13" fill="#5b8b86">页面就绪 · 24/24</text><rect x="604" y="423" width="458" height="54" rx="16" fill="#e3faf0"/><circle cx="632" cy="450" r="13" fill="#27af9c"/><path d="m626 450 4 4 8-9" fill="none" stroke="#fff" stroke-width="2" stroke-linecap="round" stroke-linejoin="round"/><text x="656" y="446" font-size="14" font-weight="700" fill="#176b68">同步完成</text><text x="656" y="466" font-size="12" fill="#5b8b86">已处理 24/24 个章节，可关闭窗口</text><rect x="604" y="500" width="210" height="42" rx="21" fill="#159b9d"/><text x="709" y="527" text-anchor="middle" font-size="13" font-weight="700" fill="#fff">整理章节资料</text><rect x="830" y="500" width="210" height="42" rx="21" fill="#fff" stroke="#efaa55" stroke-width="2"/><text x="935" y="527" text-anchor="middle" font-size="13" font-weight="700" fill="#d97947">导出复习提纲</text></g>
</svg>
